<svg width="60" height="60" viewBox="0 0 60 60" fill="none" xmlns="http://www.w3.org/2000/svg">
<g clip-path="url(#clip0_367_234)">
<path d="M30 26.5135C29.8958 26.5135 29.8031 26.5022 29.6988 26.4573L1.49264 15.1642C1.0988 15.007 0.913459 14.558 1.07563 14.1988C1.2378 13.8171 1.70115 13.6375 2.07182 13.7946L30.0116 24.9755L57.9282 13.7946C58.3221 13.6375 58.7622 13.8171 58.9244 14.1988C59.0866 14.5804 58.9012 15.007 58.5074 15.1642L30.2896 26.4685C30.2085 26.491 30.1159 26.5247 30.0116 26.5247L30 26.5135Z" fill="#349329" stroke="#349329" stroke-width="0.5" stroke-miterlimit="10"/>
<path d="M29.9942 57.0049C29.89 57.0049 29.7973 56.9933 29.6931 56.9467L1.49182 45.2286C1.19069 45.1123 1.01697 44.833 1.01697 44.5188V14.4032C1.01697 14.089 1.20227 13.8097 1.49182 13.6934L29.7047 1.98694C29.89 1.91712 30.0985 1.91712 30.2954 1.98694L58.5082 13.705C58.8093 13.8214 58.9831 14.1007 58.9831 14.4149V44.5188C58.9831 44.833 58.7978 45.1123 58.5082 45.2286L30.2954 56.9467C30.2027 57.0049 30.11 57.0165 29.9942 57.0165V57.0049ZM2.53416 44.0068L29.9942 55.3874L57.4543 43.9952V14.9152L29.9942 3.53461L2.53416 14.9152V44.0068Z" fill="#349329" stroke="#349329" stroke-width="0.5" stroke-miterlimit="10"/>
<path d="M30.0001 57.0164C29.715 57.0164 29.4916 56.6807 29.4916 56.2524V26.305C29.4916 25.8767 29.715 25.541 30.0001 25.541C30.2851 25.541 30.5085 25.8767 30.5085 26.305V56.2524C30.5085 56.6807 30.2851 57.0164 30.0001 57.0164Z" fill="#349329" stroke="#349329" stroke-width="0.5" stroke-miterlimit="10"/>
<path d="M41.4086 36.3377C41.2565 36.3377 41.1044 36.3149 40.9641 36.2467C40.5195 36.076 40.2388 35.6665 40.2388 35.2114L40.0399 22.3561L13.6605 10.4108C13.2744 10.2402 13.1107 9.78512 13.2978 9.42107C13.485 9.05703 13.9412 8.88638 14.3156 9.0684L41.1161 21.1957C41.3852 21.3094 41.5607 21.5825 41.5607 21.8669L41.7595 34.3355L43.7716 32.3787C44.1109 32.0488 44.6373 31.9464 45.0935 32.1512L47.2343 33.1068L46.9769 19.5461L21.4281 7.29368C21.042 7.11166 20.9017 6.6566 21.0771 6.29255C21.2643 5.91713 21.7322 5.75786 22.1066 5.95126L48.1117 18.4085C48.3807 18.545 48.5445 18.7839 48.5445 19.0683L48.8136 33.6642C48.8136 34.051 48.6264 34.4378 48.2871 34.6312C47.9479 34.8474 47.5268 34.8815 47.1524 34.7222L44.7075 33.6415L42.2626 36.0419C42.0286 36.2581 41.7362 36.3605 41.4203 36.3605L41.4086 36.3377Z" fill="#349329" stroke="#349329" stroke-width="0.5" stroke-miterlimit="10"/>
<path d="M11.3671 40.2832C11.2922 40.2832 11.1924 40.2714 11.1176 40.2477L6.67597 38.885C6.25178 38.7428 6.00225 38.3162 6.13949 37.8897C6.28921 37.4868 6.73835 37.2498 7.1875 37.3801L11.6291 38.7428C12.0533 38.885 12.3028 39.3116 12.1656 39.7381C12.0408 40.0818 11.7164 40.2951 11.3671 40.2951V40.2832Z" fill="#349329" stroke="#349329" stroke-width="0.5" stroke-miterlimit="10"/>
<path d="M10.4999 44.2178C10.4375 44.2178 10.3544 44.2059 10.292 44.1822L6.58026 42.8196C6.22676 42.6774 6.01882 42.2508 6.13319 41.8242C6.25795 41.4214 6.63224 41.1844 7.00653 41.3147L10.7079 42.6774C11.0614 42.8196 11.2693 43.2461 11.1549 43.6727C11.0614 44.0163 10.791 44.2296 10.4999 44.2296V44.2178Z" fill="#349329" stroke="#349329" stroke-width="0.5" stroke-miterlimit="10"/>
</g>
<defs>
<clipPath id="clip0_367_234">
<rect width="60" height="60" fill="white"/>
</clipPath>
</defs>
</svg>
