<svg width="60" height="60" viewBox="0 0 60 60" fill="none" xmlns="http://www.w3.org/2000/svg">
<g clip-path="url(#clip0_367_200)">
<path d="M52.0959 11.9825C44.4359 9.88354 36.7214 6.61237 29.7974 2.52342C29.4294 2.30534 28.9796 2.30534 28.6116 2.52342C21.4969 6.72141 14.2049 9.81539 6.31321 11.9825C5.8089 12.1188 5.45453 12.5822 5.45453 13.1138V25.0808C5.45453 37.4158 11.1382 45.5665 15.9086 50.2415C21.0471 55.2709 27.0306 58.065 29.1977 58.065C31.3649 58.065 37.3484 55.2845 42.4868 50.2415C47.2573 45.5665 52.9409 37.4022 52.9409 25.0808V13.1138C52.9409 12.5822 52.5865 12.1188 52.0822 11.9825H52.0959ZM50.6102 25.0808C50.6102 36.598 45.3082 44.2171 40.8512 48.5787C35.7946 53.5263 30.3971 55.7207 29.1977 55.7207C27.9983 55.7207 22.6009 53.5263 17.5442 48.5787C13.0872 44.2171 7.78523 36.598 7.78523 25.0808V13.9998C15.3225 11.8599 22.3419 8.87493 29.1977 4.89501C35.8763 8.76589 43.2501 11.9008 50.6102 13.9998V25.0808Z" fill="#349329"/>
<path d="M21.2242 27.8205C20.5019 27.0981 19.5478 26.7029 18.5255 26.7029C17.5033 26.7029 16.5492 27.0981 15.8268 27.8205C14.3412 29.3062 14.3412 31.7187 15.8268 33.2043L22.7508 40.1283C23.4732 40.8506 24.4273 41.2459 25.4495 41.2459C26.4717 41.2459 27.4258 40.8506 28.1482 40.1283L42.5958 25.6806C44.0815 24.195 44.0815 21.7825 42.5958 20.2968C41.8735 19.5745 40.9194 19.1792 39.8971 19.1792C38.8749 19.1792 37.9208 19.5745 37.1984 20.2968L25.4495 32.0458L21.2242 27.8205ZM38.8476 21.9461C39.1202 21.6735 39.4882 21.5235 39.8835 21.5235C40.2788 21.5235 40.6468 21.6735 40.9194 21.9461C41.4918 22.5185 41.4918 23.4453 40.9194 24.0178L26.4717 38.4654C26.1991 38.738 25.8311 38.888 25.4359 38.888C25.0406 38.888 24.6726 38.738 24.4 38.4654L17.476 31.5415C16.9036 30.969 16.9036 30.0422 17.476 29.4697C17.7486 29.1971 18.1166 29.0336 18.5119 29.0336C18.9072 29.0336 19.2752 29.1835 19.5478 29.4561L24.6044 34.5128C24.8225 34.7309 25.1224 34.8535 25.4359 34.8535C25.7494 34.8535 26.0492 34.7309 26.2673 34.5128L38.8476 21.9324V21.9461Z" fill="#349329"/>
</g>
<defs>
<clipPath id="clip0_367_200">
<rect width="48" height="56" fill="white" transform="translate(5 2)"/>
</clipPath>
</defs>
</svg>
