<svg width="60" height="60" viewBox="0 0 60 60" fill="none" xmlns="http://www.w3.org/2000/svg">
<path d="M13.222 25.0979C13.823 25.0979 14.2237 24.6783 14.2237 24.049C14.2237 23.4196 13.823 23 13.222 23H4.40731C3.80631 23 3.40564 23.4196 3.40564 24.049C3.40564 24.6783 3.80631 25.0979 4.40731 25.0979H13.222Z" fill="#349329" stroke="#349329" stroke-width="0.5"/>
<path d="M58.9831 31.0509V30.9508L50.8543 18.535C50.6607 18.2346 50.3704 18.1345 50.0801 18.1345H40.6933V13.6288C40.6933 11.1256 38.6611 9.02295 36.2418 9.02295H12.0489C9.62963 9.02295 7.59743 11.1256 7.59743 13.6288V18.1345H3.33948C2.75885 18.1345 2.37177 18.535 2.37177 19.1358C2.37177 19.7366 2.75885 20.1371 3.33948 20.1371H15.9198C16.5004 20.1371 16.8875 19.7366 16.8875 19.1358C16.8875 18.535 16.5004 18.1345 15.9198 18.1345H9.62963V13.6288C9.62963 12.227 10.7909 11.0255 12.1457 11.0255H36.2418C37.5966 11.0255 38.7578 12.227 38.7578 13.6288V32.3526C38.7578 33.7544 37.5966 34.9559 36.2418 34.9559H12.0489C10.6941 34.9559 9.53286 33.7544 9.53286 32.3526V30.4502H17.081C17.6617 30.4502 18.0487 30.0496 18.0487 29.4489C18.0487 28.8481 17.6617 28.4476 17.081 28.4476H1.98468C1.40405 28.4476 1.01697 28.8481 1.01697 29.4489C1.01697 30.0496 1.40405 30.4502 1.98468 30.4502H7.59743V32.3526C7.59743 34.8558 9.62963 36.9584 12.0489 36.9584H12.436V42.3653C12.436 44.7683 14.3714 46.7709 16.6939 46.7709H18.8229C19.3068 49.7747 21.7261 51.9775 24.726 51.9775C27.7259 51.9775 30.2419 49.6746 30.629 46.7709H40.4997C40.9836 49.7747 43.4029 51.9775 46.4028 51.9775C49.4027 51.9775 51.9188 49.6746 52.3058 46.7709H58.0154C58.596 46.7709 58.9831 46.3704 58.9831 45.7696V31.151V31.0509ZM49.4027 20.1371L56.2735 30.5503H40.5965V20.1371H49.4027ZM24.726 50.0751C22.5002 50.0751 20.6616 48.1727 20.6616 45.8697C20.6616 43.5668 22.5002 41.6644 24.726 41.6644C26.9517 41.6644 28.7904 43.5668 28.7904 45.8697C28.7904 48.1727 26.9517 50.0751 24.726 50.0751ZM46.4995 50.0751C44.2738 50.0751 42.4352 48.1727 42.4352 45.8697C42.4352 43.5668 44.2738 41.6644 46.4995 41.6644C48.7253 41.6644 50.564 43.5668 50.564 45.8697C50.564 48.1727 48.7253 50.0751 46.4995 50.0751ZM52.4026 44.8685C51.9188 41.8646 49.4995 39.6619 46.4995 39.6619C43.4996 39.6619 40.9836 41.9648 40.5965 44.8685H30.7258C30.2419 41.8646 27.8227 39.6619 24.8227 39.6619C21.8228 39.6619 19.3068 41.9648 18.9197 44.8685H16.7907C15.5327 44.8685 14.4682 43.7671 14.4682 42.4654V37.0585H36.3386C38.7578 37.0585 40.79 35.056 40.79 32.5528H57.338V44.8685H52.4026Z" fill="#349329" stroke="#349329" stroke-width="0.5"/>
</svg>
