<svg width="60" height="60" viewBox="0 0 60 60" fill="none" xmlns="http://www.w3.org/2000/svg">
<path d="M21.3207 21.8687H13.155C12.5946 21.8687 12.141 22.3196 12.141 22.8766V28.9642C12.141 29.5212 12.5946 29.9721 13.155 29.9721H21.3207C21.881 29.9721 22.3347 29.5212 22.3347 28.9642V22.8766C22.3347 22.3196 21.881 21.8687 21.3207 21.8687ZM20.2933 23.8978V27.9562H14.1691V23.8978H20.2933Z" fill="#349329" stroke="#349329" stroke-width="0.5"/>
<path d="M13.155 33.0225C13.7021 33.0225 14.1557 33.4601 14.1691 34.0039V34.0304V35.9933C14.1691 36.5503 13.7154 37.0013 13.155 37.0013C12.5946 37.0013 12.1543 36.5636 12.141 36.0198V35.9933V34.0304C12.141 33.4734 12.5946 33.0225 13.155 33.0225Z" fill="#349329" stroke="#349329" stroke-width="0.5"/>
<path d="M17.2379 33.0889C17.785 33.0889 18.2386 33.5265 18.2519 34.0703V34.0968V36.0597C18.2519 36.6167 17.7983 37.0677 17.2379 37.0677C16.6775 37.0677 16.2372 36.63 16.2239 36.0862V36.0597V34.0968C16.2239 33.5398 16.6775 33.0889 17.2379 33.0889Z" fill="#349329" stroke="#349329" stroke-width="0.5"/>
<path d="M21.3207 33.0889C21.8677 33.0889 22.3214 33.5265 22.3347 34.0703V34.0968V36.0597C22.3347 36.6167 21.8811 37.0677 21.3207 37.0677C20.7603 37.0677 20.32 36.63 20.3066 36.0862V36.0597V34.0968C20.3066 33.5398 20.7603 33.0889 21.3207 33.0889Z" fill="#349329" stroke="#349329" stroke-width="0.5"/>
<path d="M25.3903 33.0889C25.9373 33.0889 26.3909 33.5265 26.4043 34.0703V34.0968V36.0597C26.4043 36.6167 25.9506 37.0677 25.3903 37.0677C24.8299 37.0677 24.3896 36.63 24.3762 36.0862V36.0597V34.0968C24.3762 33.5398 24.8299 33.0889 25.3903 33.0889Z" fill="#349329" stroke="#349329" stroke-width="0.5"/>
<path d="M31.4877 33.0889C32.0347 33.0889 32.4884 33.5265 32.5017 34.0703V34.0968V36.0597C32.5017 36.6167 32.0481 37.0677 31.4877 37.0677C30.9273 37.0677 30.487 36.63 30.4736 36.0862V36.0597V34.0968C30.4736 33.5398 30.9273 33.0889 31.4877 33.0889Z" fill="#349329" stroke="#349329" stroke-width="0.5"/>
<path d="M35.5706 33.0889C36.1176 33.0889 36.5712 33.5265 36.5846 34.0703V34.0968V36.0597C36.5846 36.6167 36.1309 37.0677 35.5706 37.0677C35.0102 37.0677 34.5699 36.63 34.5565 36.0862V36.0597V34.0968C34.5565 33.5398 35.0102 33.0889 35.5706 33.0889Z" fill="#349329" stroke="#349329" stroke-width="0.5"/>
<path d="M39.6534 33.0889C40.2005 33.0889 40.6541 33.5265 40.6675 34.0703V34.0968V36.0597C40.6675 36.6167 40.2138 37.0677 39.6534 37.0677C39.0931 37.0677 38.6527 36.63 38.6394 36.0862V36.0597V34.0968C38.6394 33.5398 39.0931 33.0889 39.6534 33.0889Z" fill="#349329" stroke="#349329" stroke-width="0.5"/>
<path d="M45.7642 33.0889C46.3112 33.0889 46.7648 33.5265 46.7782 34.0703V34.0968V36.0597C46.7782 36.6167 46.3245 37.0677 45.7642 37.0677C45.2038 37.0677 44.7635 36.63 44.7501 36.0862V36.0597V34.0968C44.7501 33.5398 45.2038 33.0889 45.7642 33.0889Z" fill="#349329" stroke="#349329" stroke-width="0.5"/>
<path d="M29.4463 42.1738C30.0066 42.1738 30.4603 42.6248 30.4603 43.1818C30.4603 43.7388 30.02 44.1765 29.4729 44.1898H29.4463H13.155C12.5946 44.1898 12.141 43.7388 12.141 43.1818C12.141 42.6248 12.5813 42.1871 13.1283 42.1738H13.155H29.4463Z" fill="#349329" stroke="#349329" stroke-width="0.5"/>
<path d="M21.4274 46.2319C21.9878 46.2319 22.4414 46.6829 22.4414 47.2399C22.4414 47.7969 22.0011 48.2346 21.4541 48.2479H21.4274H13.155C12.5946 48.2479 12.141 47.7969 12.141 47.2399C12.141 46.6829 12.5813 46.2452 13.1283 46.2319H13.155H21.4274Z" fill="#349329" stroke="#349329" stroke-width="0.5"/>
<path d="M48.5128 9.7334C50.3807 9.7334 51.9018 11.2188 51.9285 13.0756V17.8369H55.5843C57.4523 17.8369 58.9733 19.3223 59 21.1791V48.8715C59 50.7283 57.5056 52.2402 55.6377 52.2667H55.5843H11.4872C9.61928 52.2667 8.09823 50.7813 8.07154 48.9245V48.8715V44.1632H4.41569C2.54773 44.1632 1.02669 42.6778 1 40.8211V13.1286C1 11.2719 2.49436 9.75992 4.36232 9.7334H4.41569H48.5128ZM55.5843 19.8528H11.4872C10.7401 19.8528 10.1263 20.4496 10.113 21.2056V48.8582C10.113 49.6009 10.7134 50.211 11.4739 50.2243H55.5976C56.3448 50.2243 56.9586 49.6275 56.9719 48.8715V21.2321C56.9719 20.4894 56.3715 19.8793 55.611 19.8661H55.5843V19.8528ZM8.07154 42.1341V27.9563H3.04141V40.768C3.04141 41.5107 3.64182 42.1208 4.389 42.1341H4.42903H8.08489H8.07154ZM8.07154 21.2321C8.07154 20.7414 8.17828 20.2772 8.36508 19.8661H3.04141V25.9404H8.07154V21.2321ZM49.9004 17.8369V13.1286C49.9004 12.3859 49.3 11.7758 48.5528 11.7626H48.5128H4.41569C3.66851 11.7626 3.05475 12.3594 3.04141 13.1021V17.8369H49.9004Z" fill="#349329" stroke="#349329" stroke-width="0.5"/>
<path d="M50.3934 33.147C50.9593 33.147 51.4286 33.5997 51.4424 34.176V34.2034V36.2614C51.4424 36.8514 50.9731 37.3178 50.3934 37.3178C49.8136 37.3178 49.3582 36.8651 49.3444 36.2888V36.2614V34.2034C49.3444 33.6135 49.8136 33.147 50.3934 33.147Z" fill="#349329" stroke="#349329" stroke-width="0.5"/>
<path d="M54.6032 33.147C55.1691 33.147 55.6384 33.5997 55.6522 34.176V34.2034V36.2614C55.6522 36.8514 55.1829 37.3178 54.6032 37.3178C54.0235 37.3178 53.568 36.8651 53.5542 36.2888V36.2614V34.2034C53.5542 33.6135 54.0235 33.147 54.6032 33.147Z" fill="#349329" stroke="#349329" stroke-width="0.5"/>
</svg>
