<svg width="158" height="100" viewBox="0 0 158 100" fill="none" xmlns="http://www.w3.org/2000/svg">
<rect width="158" height="100" fill="#FAF7EF"/>
<g clip-path="url(#clip0_417_4846)">
<path d="M112.498 47.7938C109.205 42.2869 101.476 33.9242 99.2369 31.5018C95.9273 27.9217 92.8894 24.9615 91.6776 19.8397C91.4355 18.8186 90.5814 14.8161 91.9431 9.92048C93.4498 4.5006 96.7679 1.24097 98.1751 0.0012207C97.112 0.771407 86.3526 8.84346 86.6377 22.2534C86.8073 30.2584 90.8223 35.8745 92.4162 37.8807C93.757 39.5627 95.8253 42.1192 98.4405 45.1751C103.503 51.0944 104.854 52.1627 106.529 54.9615C109.759 60.354 110.283 65.6435 110.429 67.2994C111.228 76.3267 107.519 83.2658 105.867 85.9739C107.691 75.0571 105.238 65.2832 99.1029 61.395C96.1338 59.5143 92.9078 59.3913 92.6055 59.3838C85.1421 59.1876 80.2939 65.9441 79.6979 66.8012C81.5843 63.9143 84.2278 58.9987 85.0462 52.4584C85.1913 51.3006 85.587 47.6348 84.9074 42.9279C83.7768 35.0931 80.8445 32.513 80.8027 25.0683C80.7916 23.1329 80.9784 21.1801 81.8633 19.082C83.0111 16.3627 84.8177 14.6161 85.9753 13.6733C83.9476 14.9963 80.1735 17.8919 77.8188 22.99C75.3032 28.436 75.7431 33.5056 75.9631 35.7242C76.2642 38.7689 76.8086 38.7826 78.0843 45.1081C79.0072 49.6844 79.4681 51.9726 79.543 54.4919C79.6069 56.6658 79.7126 62.4273 76.6919 68.7677C75.0623 72.1863 73.0714 74.6273 71.652 76.1404C75.9951 62.2087 75.5428 55.1205 74.1062 51.2074C73.9317 50.7329 72.9891 48.2497 72.1829 44.7739C71.3816 41.3167 70.7315 38.395 71.1874 34.7863C71.3902 33.1851 71.9015 30.723 73.3762 27.8832C69.4976 32.7515 65.6547 39.4596 66.7018 46.8683C66.9009 48.2832 67.0557 48.1391 67.8066 51.477C69.1277 57.3478 70.5656 63.7416 69.7963 70.7801C69.505 73.4348 68.7627 77.4459 66.6133 82.1739H97.9108C98.5265 82.349 100.463 82.9876 101.492 84.8546C101.492 84.8546 102.333 86.3801 102.022 88.6459C101.53 92.241 96.3734 96.6372 88.7601 100.001C91.293 99.431 105.058 96.0671 112.498 82.8435C119.015 71.2608 117.965 56.9354 112.498 47.795V47.7938ZM99.6559 76.2733C99.3684 76.0608 98.9972 75.8298 98.5401 75.636C97.6503 75.2596 96.8417 75.1963 96.3181 75.2H74.2598C75.8537 73.5577 78.0904 71.5006 81.0239 69.4807C83.8714 67.5192 85.4112 66.482 87.7647 66.0174C89.2013 65.7341 93.3404 64.9167 96.5836 67.6931C100.207 70.7938 99.71 75.8062 99.6559 76.272V76.2733Z" fill="#1E1E1E"/>
<path d="M66.8124 61.0918C65.9459 57.4471 64.8104 56.1117 64.1259 51.8434C63.5434 48.2111 63.7154 45.1291 63.9612 43.0632C63.1771 43.5663 61.8941 44.5316 60.8004 46.1576C59.639 47.8844 59.2347 49.5502 59.0761 50.4918C57.6272 51.9999 55.0636 55.0719 53.6393 59.7415C52.4718 63.5676 52.5541 66.8757 52.7557 68.857C53.541 69.6334 54.9948 70.8694 57.1541 71.6943C59.1253 72.4471 60.863 72.544 61.9285 72.5204C62.0834 73.6756 62.7065 79.2446 58.9557 84.1154C56.6269 87.1402 53.7229 88.4533 52.3256 88.975C52.6979 88.257 53.278 86.8993 53.2866 85.1204C53.2915 84.0508 53.0887 83.1651 52.8896 82.5402C53.1612 82.1713 53.4488 81.7253 53.718 81.1986C54.126 80.3999 54.3668 79.657 54.5131 79.0545C54.2046 79.4359 53.8372 79.8471 53.4033 80.2607C53.1133 80.5365 52.8294 80.7825 52.5566 80.9986C52.3182 80.3775 51.9458 79.4371 51.4628 78.3005C50.2953 75.5564 50.1024 75.498 49.8382 74.4968C49.2913 72.4198 49.5801 70.6135 49.7558 69.5204C49.9918 68.0421 50.4158 66.862 50.766 66.0508C49.6305 66.5055 47.7182 67.4409 45.9264 69.3017C44.7356 70.5378 42.7902 73.021 42.2126 76.708C41.6251 80.462 42.7791 83.3924 43.2904 84.5166C43.1871 84.5601 42.3146 84.9465 42.0639 85.9229C41.8697 86.6819 42.1794 87.298 42.258 87.4421C43.4083 87.375 44.8806 87.1775 46.5237 86.6607C47.776 86.267 48.8304 85.78 49.6735 85.3204C49.9033 86.1502 50.3765 88.3142 49.397 90.6148C49.043 91.4458 48.5871 92.0881 48.1816 92.5589C50.3801 92.0694 54.1764 90.9166 57.9615 87.9676C63.815 83.4073 65.9201 77.4545 66.6145 75.0322C68.4972 68.4657 67.2105 62.7601 66.8136 61.0906L66.8124 61.0918ZM58.0365 65.2819C57.2721 64.8222 56.7768 64.2607 56.4892 63.8744C56.2078 62.816 55.7543 60.5328 56.4892 57.8198C57.025 55.8421 57.9738 54.4396 58.6104 53.6421C58.6522 55.3055 58.8058 57.2111 59.1634 59.2943C59.6132 61.9179 60.2781 64.1837 60.954 66.0421C60.4231 66.0545 59.2457 66.0098 58.0365 65.2819ZM46.1685 83.3775C45.9129 82.6384 45.5823 81.585 45.2849 80.2943C44.8536 78.421 44.5549 77.1278 44.6447 75.4235C44.7049 74.2682 44.7872 72.6831 45.7937 71.0446C46.6331 69.6781 47.7355 68.8943 48.4015 68.498C47.6715 69.3775 46.4107 71.1812 46.1685 73.7042C45.9744 75.7365 46.5311 77.3166 46.9637 78.5527C47.6335 80.4583 48.5638 81.857 49.2409 82.7303C48.216 82.9465 47.1923 83.1626 46.1673 83.3775H46.1685Z" fill="#1E1E1E"/>
<path d="M59.0098 42.538C60.4012 42.538 61.5291 41.3978 61.5291 39.9914C61.5291 38.585 60.4012 37.4448 59.0098 37.4448C57.6184 37.4448 56.4905 38.585 56.4905 39.9914C56.4905 41.3978 57.6184 42.538 59.0098 42.538Z" fill="#1E1E1E"/>
<path d="M48.2897 64.2087C49.62 64.2087 50.6984 63.1186 50.6984 61.7739C50.6984 60.4292 49.62 59.3391 48.2897 59.3391C46.9594 59.3391 45.881 60.4292 45.881 61.7739C45.881 63.1186 46.9594 64.2087 48.2897 64.2087Z" fill="#1E1E1E"/>
<path d="M44.6274 67.5154C45.5431 67.5154 46.2853 66.7651 46.2853 65.8396C46.2853 64.9141 45.5431 64.1638 44.6274 64.1638C43.7118 64.1638 42.9696 64.9141 42.9696 65.8396C42.9696 66.7651 43.7118 67.5154 44.6274 67.5154Z" fill="#1E1E1E"/>
<path d="M68.1765 92.4236V92.5851C68.1765 92.6609 68.1151 92.723 68.0401 92.723H63.2017C63.0543 92.723 62.9179 92.6845 62.7974 92.6174C62.661 92.5416 62.5479 92.4261 62.473 92.2882C62.4066 92.1677 62.3698 92.0298 62.3698 91.8832V85.3776C62.3698 85.3019 62.4312 85.2397 62.5062 85.2397H62.6659C62.7409 85.2397 62.8023 85.3006 62.8023 85.3776V91.4472C62.8023 91.9118 63.1747 92.2882 63.6343 92.2882H68.0413C68.1163 92.2882 68.1777 92.3491 68.1777 92.4261L68.1765 92.4236Z" fill="#1E1E1E"/>
<path d="M93.43 85.2545V85.416C93.43 85.4918 93.3686 85.5539 93.2936 85.5539H91.766C91.3064 85.5539 90.9341 85.9303 90.9341 86.3949V87.8061H92.7025C92.7775 87.8061 92.8389 87.8682 92.8389 87.944V88.1055C92.8389 88.1812 92.7775 88.2434 92.7025 88.2434H90.9341V92.5875C90.9341 92.6632 90.8726 92.7253 90.7976 92.7253H90.6379C90.5629 92.7253 90.5015 92.6645 90.5015 92.5875V85.9601C90.5015 85.8135 90.5383 85.6757 90.6047 85.5552C90.6686 85.4371 90.7595 85.3378 90.8689 85.2632C91.0016 85.1726 91.1614 85.1191 91.3347 85.1191H93.2936C93.3686 85.1191 93.43 85.1813 93.43 85.257V85.2545Z" fill="#1E1E1E"/>
<path d="M80.4315 88.2074V91.446C80.4315 91.9106 80.8039 92.2869 81.2635 92.2869H82.4495V92.723H80.8322C80.6847 92.723 80.5483 92.6845 80.4279 92.6174C80.2914 92.5416 80.1784 92.4261 80.1034 92.2882C80.0371 92.1677 80.0002 92.0298 80.0002 91.8832V85.3776C80.0002 85.3019 80.0616 85.2397 80.1366 85.2397H80.2964C80.3713 85.2397 80.4328 85.3006 80.4328 85.3776V87.7727H82.4507V88.2087H80.4328L80.4315 88.2074Z" fill="#1E1E1E"/>
<path d="M76.6145 88.2074V91.446C76.6145 91.9106 76.9868 92.2869 77.4465 92.2869H78.6324V92.723H77.0151C76.8676 92.723 76.7312 92.6845 76.6108 92.6174C76.4744 92.5416 76.3613 92.4261 76.2863 92.2882C76.22 92.1677 76.1831 92.0298 76.1831 91.8832V85.3776C76.1831 85.3019 76.2446 85.2397 76.3195 85.2397H76.4793C76.5542 85.2397 76.6157 85.3006 76.6157 85.3776V87.7727H78.6336V88.2087H76.6157L76.6145 88.2074Z" fill="#1E1E1E"/>
<path d="M88.6532 87.8746C88.6421 87.8684 88.6298 87.8622 88.6188 87.856C88.5082 87.8013 88.384 87.7715 88.2525 87.7715H83.7681C83.7448 87.7715 83.7226 87.7777 83.7042 87.7876C83.6612 87.8112 83.6329 87.856 83.6329 87.9094V88.0709C83.6329 88.123 83.6612 88.169 83.7042 88.1914C83.7226 88.2025 83.7448 88.2088 83.7681 88.2088H87.8212C88.2808 88.2088 88.6532 88.5839 88.6532 89.0497C88.6532 89.169 88.6286 89.282 88.5844 89.3851C88.4799 89.6274 88.2661 89.81 88.0067 89.8696H84.5374C84.3924 89.8696 84.256 89.9069 84.1368 89.974C83.9992 90.051 83.8849 90.1665 83.8087 90.3056C83.7423 90.4261 83.7054 90.564 83.7054 90.7106V91.8833C83.7054 92.0299 83.7423 92.1678 83.8087 92.287C83.8836 92.4261 83.9967 92.5404 84.1331 92.6174C84.2536 92.6845 84.39 92.723 84.5374 92.723H88.255C88.4012 92.723 88.5389 92.6845 88.6581 92.6174C88.7945 92.5417 88.9076 92.4261 88.9825 92.287C89.0489 92.1678 89.0858 92.0299 89.0858 91.8833V88.6137C89.0858 88.2957 88.9125 88.0199 88.6544 87.8758L88.6532 87.8746ZM88.6532 91.446C88.6532 91.9106 88.282 92.287 87.8212 92.287H84.9676C84.5079 92.287 84.1356 91.9119 84.1356 91.446V91.1454C84.1356 90.6808 84.5079 90.3044 84.9676 90.3044H87.8212C88.2808 90.3044 88.6519 90.6808 88.6532 91.1454V91.4473V91.446Z" fill="#1E1E1E"/>
<path d="M74.3851 87.8746C74.374 87.8684 74.3618 87.8622 74.3495 87.856C74.2401 87.8013 74.116 87.7715 73.9845 87.7715H69.5001C69.4767 87.7715 69.4546 87.7777 69.4361 87.7876C69.3931 87.8112 69.3649 87.856 69.3649 87.9094V88.0709C69.3649 88.123 69.3931 88.169 69.4361 88.1914C69.4546 88.2025 69.4767 88.2088 69.5001 88.2088H73.5531C74.0127 88.2088 74.3851 88.5839 74.3851 89.0497C74.3851 89.169 74.3605 89.282 74.3163 89.3851C74.2118 89.6274 73.998 89.81 73.7387 89.8696H70.2694C70.1244 89.8696 69.9879 89.9069 69.8687 89.974C69.7311 90.051 69.6156 90.1665 69.5406 90.3056C69.4742 90.4261 69.4374 90.564 69.4374 90.7106V91.8833C69.4374 92.0299 69.4742 92.1678 69.5406 92.287C69.6156 92.4261 69.7286 92.5404 69.865 92.6174C69.9855 92.6845 70.1219 92.723 70.2694 92.723H73.9869C74.1332 92.723 74.2708 92.6845 74.39 92.6174C74.5264 92.5417 74.6395 92.4261 74.7145 92.287C74.7808 92.1678 74.8177 92.0299 74.8177 91.8833V88.6137C74.8177 88.2957 74.6432 88.0199 74.3863 87.8758L74.3851 87.8746ZM74.3851 91.446C74.3851 91.9106 74.0127 92.287 73.5531 92.287H70.6995C70.2399 92.287 69.8675 91.9119 69.8675 91.446V91.1454C69.8675 90.6808 70.2399 90.3044 70.6995 90.3044H73.5531C74.0127 90.3044 74.3839 90.6808 74.3851 91.1454V91.4473V91.446Z" fill="#1E1E1E"/>
<path d="M99.0476 87.8746C99.0365 87.8684 99.0255 87.8622 99.0132 87.856C98.9026 87.8013 98.7797 87.7715 98.6469 87.7715H94.1638C94.1404 87.7715 94.1183 87.7777 94.0986 87.7876C94.0568 87.8112 94.0273 87.856 94.0273 87.9094V88.0709C94.0273 88.123 94.0568 88.169 94.0986 88.1914C94.1183 88.2025 94.1404 88.2088 94.1638 88.2088H98.2168C98.6764 88.2088 99.0476 88.5839 99.0476 89.0497C99.0476 89.169 99.023 89.282 98.9788 89.3851C98.8743 89.6274 98.6605 89.81 98.4012 89.8696H94.9318C94.7868 89.8696 94.6504 89.9069 94.5312 89.974C94.3923 90.051 94.278 90.1665 94.2031 90.3056C94.1367 90.4261 94.0999 90.564 94.0999 90.7106V91.8833C94.0999 92.0299 94.1379 92.1678 94.2031 92.287C94.278 92.4261 94.3911 92.5404 94.5275 92.6174C94.648 92.6845 94.7844 92.723 94.9318 92.723H98.6482C98.7944 92.723 98.9321 92.6845 99.0525 92.6174C99.1889 92.5417 99.302 92.4261 99.3769 92.287C99.4433 92.1678 99.4802 92.0299 99.4802 91.8833V88.6137C99.4802 88.2957 99.3057 88.0199 99.0488 87.8758L99.0476 87.8746ZM99.0476 91.446C99.0476 91.9106 98.6764 92.287 98.2168 92.287H95.362C94.9024 92.287 94.53 91.9119 94.53 91.446V91.1454C94.53 90.6808 94.9024 90.3044 95.362 90.3044H98.2168C98.6764 90.3044 99.0476 90.6808 99.0476 91.1454V91.4473V91.446Z" fill="#1E1E1E"/>
</g>
<defs>
<clipPath id="clip0_417_4846">
<rect width="75" height="100" fill="white" transform="translate(42)"/>
</clipPath>
</defs>
</svg>
