<svg width="158" height="100" viewBox="0 0 158 100" fill="none" xmlns="http://www.w3.org/2000/svg">
<rect width="158" height="100" fill="#FAF7EF"/>
<g clip-path="url(#clip0_417_4852)">
<path d="M132.973 56.5419C132.924 56.2429 132.924 55.9825 134.404 55.5181C135.877 55.0589 139.465 53.8345 141.644 52.6224C143.822 51.3998 144.186 51.2274 144.698 51.5705C145.21 51.9082 145.062 52.7386 145.062 53.3261V59.2722C145.859 57.9545 148.478 53.5706 150.559 52.2794C152.194 51.2608 152.771 51.1782 153.783 51.1553C154.998 51.1324 157.871 51.8853 157.998 54.9358C158.098 57.3212 156.348 58.28 155.236 58.1305C154.344 58.0038 153.706 57.1787 153.178 56.3484C152.645 55.5075 151.797 55.0079 150.95 55.2964C150.102 55.5902 145.356 58.6899 145.085 63.0966C144.892 66.3406 145.085 76.4542 145.085 76.4542C145.085 77.9882 145.669 78.5793 146.35 78.9891C147.027 79.4043 149.52 79.4272 150.218 79.5257C150.928 79.626 150.9 79.7913 150.9 80.013C150.9 80.2346 150.9 80.3349 150.272 80.3349H133.578C133.045 80.3349 132.83 80.2294 132.83 79.9145C132.83 79.4764 133.529 79.5538 134.063 79.4764C134.596 79.4043 137.42 79.6365 138.227 78.2081C138.822 77.2722 138.75 75.7663 138.75 75.7663L138.668 58.002C138.668 56.5683 138.245 56.3572 137.853 56.1303C137.456 55.9033 136.802 55.7819 135.421 56.2517C134.117 56.6827 133.22 57.0873 132.973 56.5402" fill="#1E1E1E"/>
<path d="M74.5905 56.5474C74.3649 56.1093 74.7828 55.8279 76.0207 55.5006C77.4019 55.1295 80.4284 54.2059 82.8272 52.8372C85.226 51.4756 85.6387 51.3314 86.1457 51.4967C86.658 51.6691 86.6073 52.5698 86.6073 53.3017V76.2872C86.6073 77.5767 86.7786 78.1132 87.3556 78.6515C87.9396 79.1881 89.3907 79.5047 91.279 79.5047C92.1322 79.5047 92.3963 79.605 92.3963 79.9692C92.3963 80.3333 92.1322 80.3351 91.7913 80.3351H75.2252C74.7129 80.3351 74.5922 80.1134 74.5922 79.8971C74.5922 79.6261 74.8178 79.4537 75.5888 79.4537C76.2375 79.4537 79.236 79.6807 79.9196 78.1132C80.1836 77.5151 80.3095 76.6795 80.3095 75.8984V57.6627C80.3095 56.2782 79.243 55.6643 78.0104 55.9633C76.5697 56.2958 74.8912 57.1156 74.594 56.5438" fill="#1E1E1E"/>
<path d="M83.0371 40.6477C85.2873 40.6477 87.1144 38.8093 87.1144 36.5505C87.1144 34.2917 85.2873 32.4534 83.0371 32.4534C80.7869 32.4534 78.9703 34.2864 78.9703 36.5505C78.9703 38.8146 80.7922 40.6477 83.0371 40.6477Z" fill="#1E1E1E"/>
<path d="M102.948 66.7171C103.768 74.1742 108.181 79.976 113.65 79.0015C119.129 78.0269 121.876 72.7616 121.215 64.3316C120.539 55.7556 116.323 51.4772 110.651 51.9927C104.786 52.5292 102.123 59.2563 102.948 66.7188M108.373 50.6785C115.432 49.3504 125.474 50.916 127.756 62.0323C130.034 73.1486 122.43 79.0665 115.834 80.5108C109.386 81.9164 98.4371 80.9155 96.4561 68.9565C94.6728 58.2219 102.415 51.7956 108.373 50.6768" fill="#1E1E1E"/>
<path d="M24.7977 78.5354H28.8907C44.121 78.5354 48.2088 77.1122 53.5677 69.9488C58.9265 62.7854 59.5647 52.4994 59.5647 49.0233C59.5647 45.5471 58.6451 36.8215 53.2862 29.4418C47.9221 22.062 38.9702 20.1462 31.1409 20.1462H24.7644C23.2521 20.1462 23.1751 20.8217 23.1751 21.8843V77.1826C23.1751 78.3894 23.5982 78.5336 24.7977 78.5336M0 79.8319C0 79.2725 0.720344 79.1792 1.39173 79.1564C9.14417 78.9347 10.5918 78.6638 11.4765 77.7385C11.9608 77.2283 12.6707 76.8131 12.6707 73.1998V23.464C12.6707 18.9957 7.27862 19.7047 3.47059 19.3124C2.13306 19.1787 2.02291 18.9975 2.02291 18.6034C2.02291 18.2093 2.27817 18.0281 2.97579 18H34.2111C68.555 18 70.3104 43.2602 70.3104 49.9978C70.3104 64.4742 60.7973 80.3966 40.9127 80.3966H1.00184C0.512283 80.3966 0 80.3298 0 79.8319Z" fill="#1E1E1E"/>
</g>
<defs>
<clipPath id="clip0_417_4852">
<rect width="158" height="63" fill="white" transform="translate(0 18)"/>
</clipPath>
</defs>
</svg>
