<svg width="158" height="100" viewBox="0 0 158 100" fill="none" xmlns="http://www.w3.org/2000/svg">
<rect width="158" height="100" fill="#FAF7EF"/>
<g clip-path="url(#clip0_417_4848)">
<path d="M78.4327 96.3861L74.9949 96.3786L74.9924 97.8113L80.2918 97.8226L80.371 91.9497L82.8126 91.9547L82.8151 90.3069H82.5295L79.0427 90.2994L78.5182 90.2981H78.4465L78.4427 91.9459L78.4402 93.0918L75.0025 93.0843L74.9987 94.7308L78.4365 94.7383V95.1144L78.4327 96.3861Z" fill="#1E1E1E"/>
<path d="M71.8377 95.834L68.4352 95.3371L68.2289 96.7548L73.4729 97.5208L74.3874 91.7183L76.8025 92.0705L77.0402 90.4403L76.7572 90.3988L73.3081 89.8956L72.7874 89.8202L72.7169 89.8088L72.4792 91.439L72.3132 92.5736L68.9119 92.0768L68.6729 93.707L72.0754 94.2038L72.0213 94.5761L71.8377 95.834Z" fill="#1E1E1E"/>
<path d="M65.3875 94.3473L62.0919 93.3724L61.6843 94.746L66.7673 96.2504L68.4969 90.6366L70.8378 91.3296L71.3057 89.7498L71.0302 89.668L67.6881 88.6793L67.185 88.5296L67.1158 88.5095L66.6478 90.0894L66.3233 91.1888L63.0265 90.2127L62.5585 91.7925L65.8554 92.7686L65.7485 93.1284L65.3875 94.3473Z" fill="#1E1E1E"/>
<path d="M59.2151 91.9598L56.0905 90.5246L55.493 91.8265L60.3094 94.0391L62.8213 88.7284L65.039 89.7473L65.727 88.2504L65.4666 88.1309L62.2993 86.6756L61.8213 86.4567L61.7559 86.4265L61.0691 87.9234L60.5899 88.9649L57.4666 87.5309L56.7786 89.0278L59.9031 90.4617L59.7459 90.8039L59.2151 91.9598Z" fill="#1E1E1E"/>
<path d="M53.4453 88.717L50.5573 86.8516L49.7799 88.0554L54.2327 90.9296L57.4742 86.0315L59.5246 87.356L60.4176 85.9724L60.1774 85.8164L57.2491 83.9258L56.8076 83.6403L56.7472 83.6013L55.8541 84.9862L55.2327 85.9485L52.3447 84.0831L51.4503 85.468L54.3384 87.3321L54.1346 87.6479L53.4453 88.717Z" fill="#1E1E1E"/>
<path d="M48.195 84.6855L45.6025 82.4289L44.6616 83.5094L48.6591 86.9886L52.5648 82.6012L54.4063 84.2037L55.488 82.961L55.2717 82.7735L52.6428 80.4842L52.2465 80.1396L52.1924 80.093L51.1107 81.3358L50.3585 82.2L47.7648 79.9434L46.683 81.1861L49.2767 83.4427L49.0302 83.727L48.195 84.6855Z" fill="#1E1E1E"/>
<path d="M43.5723 79.9496L41.327 77.3458L40.2415 78.2817L43.7043 82.2942L48.1949 78.5081L49.7886 80.3559L51.0364 79.2804L50.849 79.0628L48.5723 76.4238L48.2289 76.0263L48.1823 75.9722L46.9345 77.0477L46.0679 77.7961L43.8213 75.1936L42.5735 76.2691L44.8201 78.8728L44.5358 79.1181L43.5723 79.9496Z" fill="#1E1E1E"/>
<path d="M39.6717 74.6026L37.8189 71.7057L36.6113 72.4781L39.4679 76.9435L44.4516 73.834L45.766 75.8907L47.1547 75.0026L47 74.7611L45.122 71.8252L44.839 71.3825L44.8 71.3221L43.4126 72.2102L42.4465 72.8265L40.5937 69.9309L39.2063 70.819L41.0591 73.7146L40.7421 73.9171L39.6717 74.6026Z" fill="#1E1E1E"/>
<path d="M36.5698 68.7548L35.1484 65.6252L33.844 66.2164L36.0352 71.0428L41.4113 68.6755L42.4201 70.8969L43.9207 70.2164L43.8012 69.956L42.361 66.7812L42.1434 66.3032L42.1132 66.2378L40.6138 66.9195L39.5698 67.3925L38.1484 64.2629L36.649 64.9434L38.0704 68.0743L37.7283 68.229L36.5698 68.7548Z" fill="#1E1E1E"/>
<path d="M34.3333 62.5259L33.3711 59.2252L31.9962 59.6252L33.478 64.7145L39.1358 63.1359L39.8189 65.4793L41.4 65.0177L41.3207 64.7435L40.3459 61.3963L40.1987 60.8919L40.1786 60.8227L38.5962 61.2844L37.4968 61.6051L36.5346 58.3032L34.9534 58.7649L35.9145 62.0655L35.5534 62.1699L34.3333 62.5259Z" fill="#1E1E1E"/>
<path d="M33.005 56.0415L32.5232 52.6377L31.1044 52.8377L31.8478 58.0855L37.6729 57.3283L38.0151 59.7446L39.6453 59.5144L39.605 59.2302L39.1169 55.7786L39.0427 55.2591L39.0327 55.1874L37.4025 55.4188L36.2679 55.5798L35.7861 52.1748L34.1547 52.4063L34.6364 55.81L34.2641 55.8629L33.005 56.0415Z" fill="#1E1E1E"/>
<path d="M32.6138 49.4339L32.6214 45.9962L31.1887 45.9924L31.1774 51.2931L37.0503 51.3723L37.0453 53.8126L38.6931 53.8163V53.5295L38.7006 50.044L38.7019 49.5195V49.4478L37.0541 49.444L35.9082 49.4415L35.9157 46.0025L34.2692 46L34.2616 49.4377L33.8855 49.4365L32.6138 49.4339Z" fill="#1E1E1E"/>
<path d="M33.166 42.839L33.6629 39.4365L32.2453 39.2302L31.4792 44.4742L37.2818 45.3887L36.9296 47.8038L38.5598 48.0415L38.6013 47.7585L39.1044 44.3095L39.1799 43.7887L39.1912 43.7183L37.561 43.4805L36.4264 43.3145L36.9233 39.9132L35.2931 39.6742L34.7962 43.0768L34.4239 43.0227L33.166 42.839Z" fill="#1E1E1E"/>
<path d="M34.6515 36.3887L35.6276 33.0918L34.254 32.6855L32.7496 37.7673L38.3635 39.4981L37.6704 41.839L39.2503 42.3057L39.3308 42.0315L40.3207 38.6893L40.4691 38.1849L40.4905 38.117L38.9106 37.6491L37.8113 37.3245L38.7874 34.0277L37.2075 33.5598L36.2314 36.8566L35.8716 36.7497L34.6515 36.3887Z" fill="#1E1E1E"/>
<path d="M37.0403 30.2164L38.4755 27.0919L37.1736 26.4944L34.9611 31.3107L40.2718 33.8214L39.2529 36.0403L40.7497 36.7271L40.8692 36.4667L42.3246 33.2994L42.5434 32.8227L42.5736 32.7573L41.0768 32.0692L40.0353 31.5912L41.4692 28.4667L39.9724 27.7799L38.5372 30.9032L38.1963 30.7472L37.0403 30.2164Z" fill="#1E1E1E"/>
<path d="M40.2831 24.4452L42.1485 21.5571L40.9447 20.7798L38.0692 25.2326L42.9686 28.4741L41.6441 30.5257L43.0277 31.4188L43.1837 31.1785L45.0742 28.2502L45.3598 27.8087L45.3975 27.7483L44.0139 26.8553L43.0516 26.2326L44.917 23.3446L43.5321 22.4515L41.668 25.3395L41.351 25.1358L40.2831 24.4452Z" fill="#1E1E1E"/>
<path d="M44.3145 19.1962L46.5711 16.6025L45.4906 15.6628L42.0114 19.6603L46.3975 23.566L44.795 25.4075L46.0378 26.4893L46.2264 26.2729L48.5145 23.6427L48.8592 23.2465L48.9069 23.1937L47.6642 22.1119L46.8 21.3597L49.0566 18.766L47.8139 17.6842L45.5573 20.2779L45.273 20.0314L44.3145 19.1962Z" fill="#1E1E1E"/>
<path d="M49.0516 14.5735L51.6541 12.3282L50.7183 11.2427L46.7057 14.7056L50.4919 19.1961L48.6441 20.7898L49.7195 22.0376L49.9371 21.8502L52.5761 19.5735L52.9736 19.2301L53.0277 19.1836L51.9522 17.9358L51.2038 17.0678L53.8063 14.8225L52.7308 13.5748L50.1271 15.8213L49.8818 15.5358L49.0516 14.5735Z" fill="#1E1E1E"/>
<path d="M54.3975 10.6717L57.2944 8.8201L56.522 7.61255L52.0566 10.4692L55.1661 15.4515L53.1095 16.7673L53.9975 18.1547L54.239 18.0012L57.1749 16.1232L57.6176 15.839L57.678 15.8012L56.79 14.4125L56.1736 13.4478L59.0692 11.5949L58.1812 10.2075L55.2856 12.0603L55.0831 11.7434L54.3975 10.6717Z" fill="#1E1E1E"/>
<path d="M60.2453 7.571L63.3761 6.14962L62.7837 4.84521L57.9573 7.03641L60.3258 12.4113L58.1032 13.4213L58.7837 14.9207L59.0453 14.8024L62.2189 13.3609L62.6969 13.1446L62.7623 13.1144L62.0805 11.615L61.6076 10.571L64.7371 9.14962L64.0566 7.64899L60.9258 9.07037L60.7711 8.72823L60.2453 7.571Z" fill="#1E1E1E"/>
<path d="M66.4742 5.33341L69.7748 4.3724L69.3748 2.99756L64.2855 4.47932L65.8641 10.1372L63.5208 10.8189L63.9824 12.4013L64.2566 12.3208L67.6038 11.346L68.1082 11.1988L68.1774 11.1787L67.7157 9.59756L67.3962 8.49693L70.6969 7.53592L70.2352 5.95479L66.9346 6.9158L66.8302 6.55479L66.4742 5.33341Z" fill="#1E1E1E"/>
<path d="M72.9585 4.00634L76.3623 3.52458L76.1623 2.10571L70.9132 2.84911L71.6717 8.67301L69.2554 9.01515L69.4856 10.6466L69.7698 10.6063L73.2214 10.1183L73.7409 10.0441L73.8113 10.034L73.5812 8.40257L73.4202 7.26798L76.8239 6.78622L76.5937 5.15477L73.19 5.63779L73.1371 5.26546L72.9585 4.00634Z" fill="#1E1E1E"/>
<path d="M79.566 3.61498L83.0037 3.62127L83.0062 2.18982L77.7069 2.17725L77.6276 8.05146L75.1874 8.04517L75.1836 9.69297L75.4704 9.69423L78.9559 9.70177L79.4804 9.70303H79.5521L79.5559 8.05523L79.5584 6.90932L82.9962 6.91687L82.9999 5.26907L79.5622 5.26152L79.5635 4.88542L79.566 3.61498Z" fill="#1E1E1E"/>
<path d="M86.161 4.16726L89.5635 4.66412L89.7698 3.24651L84.5258 2.48047L83.6113 8.28298L81.1962 7.93078L80.9585 9.56097L81.2415 9.60122L84.6906 10.1056L85.2113 10.1811L85.2818 10.1912L85.5195 8.56097L85.6855 7.42764L89.0868 7.92449L89.3258 6.29431L85.9233 5.79745L85.9774 5.42512L86.161 4.16726Z" fill="#1E1E1E"/>
<path d="M92.6114 5.65286L95.9082 6.62896L96.3145 5.25538L91.2315 3.75098L89.5019 9.36356L87.161 8.67173L86.6931 10.2503L86.9686 10.3321L90.3107 11.322L90.8151 11.4705L90.8831 11.4906L91.351 9.91073L91.6755 8.81261L94.9724 9.78871L95.4403 8.20884L92.1434 7.23274L92.2503 6.87173L92.6114 5.65286Z" fill="#1E1E1E"/>
<path d="M98.7837 8.0414L101.908 9.47662L102.506 8.17474L97.6893 5.96216L95.1786 11.2716L92.9598 10.2527L92.2717 11.7508L92.5321 11.8703L95.7007 13.3244L96.1774 13.5445L96.2428 13.5735L96.9308 12.0766L97.4088 11.0351L100.533 12.4703L101.22 10.9735L98.0956 9.53826L98.2529 9.19612L98.7837 8.0414Z" fill="#1E1E1E"/>
<path d="M104.554 11.2844L107.442 13.1498L108.219 11.946L103.766 9.07056L100.525 13.9687L98.4743 12.6454L97.5812 14.029L97.8214 14.1838L100.75 16.0756L101.191 16.3599L101.252 16.3989L102.145 15.0152L102.766 14.0517L105.655 15.9171L106.548 14.5334L103.66 12.668L103.864 12.3523L104.554 11.2844Z" fill="#1E1E1E"/>
<path d="M109.804 15.3144L112.398 17.5722L113.337 16.4917L109.34 13.0112L105.434 17.3987L103.593 15.7961L102.511 17.0389L102.727 17.2276L105.356 19.5156L105.752 19.8603L105.806 19.9068L106.888 18.6653L107.64 17.7999L110.234 20.0578L111.316 18.815L108.722 16.5571L108.969 16.2741L109.804 15.3144Z" fill="#1E1E1E"/>
<path d="M114.426 20.0515L116.672 22.6553L117.757 21.7194L114.294 17.7056L109.804 21.493L108.21 19.6439L106.962 20.7207L107.15 20.937L109.426 23.5773L109.77 23.9748L109.816 24.0288L111.064 22.9521L111.932 22.2037L114.177 24.8075L115.425 23.7307L113.179 21.1282L113.464 20.8817L114.426 20.0515Z" fill="#1E1E1E"/>
<path d="M118.328 25.3987L120.18 28.2943L121.387 27.5233L118.531 23.0579L113.547 26.1673L112.233 24.1107L110.844 24.9987L110.999 25.239L112.877 28.1761L113.16 28.6189L113.199 28.6792L114.586 27.7912L115.552 27.1736L117.405 30.0704L118.792 29.1824L116.94 26.2855L117.257 26.083L118.328 25.3987Z" fill="#1E1E1E"/>
<path d="M121.429 31.2453L122.85 34.3761L124.155 33.7837L121.964 28.9585L116.589 31.3258L115.579 29.1031L114.079 29.7849L114.197 30.0453L115.639 33.2201L115.855 33.6981L115.886 33.7635L117.385 33.0818L118.429 32.6076L119.85 35.7384L121.351 35.0579L119.93 31.9271L120.272 31.7711L121.429 31.2453Z" fill="#1E1E1E"/>
<path d="M123.667 37.4754L124.628 40.7761L126.003 40.3748L124.521 35.2868L118.863 36.8654L118.181 34.522L116.599 34.9823L116.679 35.2578L117.654 38.605L117.801 39.1094L117.82 39.1773L119.403 38.7169L120.503 38.3962L121.464 41.6968L123.045 41.2364L122.084 37.9358L122.445 37.8301L123.667 37.4754Z" fill="#1E1E1E"/>
<path d="M124.994 43.9598L125.476 47.3635L126.894 47.1623L126.151 41.9145L120.327 42.673L119.985 40.2554L118.354 40.4868L118.394 40.7698L118.882 44.2214L118.956 44.7422L118.966 44.8126L120.596 44.5812L121.732 44.4214L122.214 47.8252L123.844 47.5937L123.362 44.19L123.735 44.1371L124.994 43.9598Z" fill="#1E1E1E"/>
<path d="M125.385 50.566L125.377 54.005L126.81 54.0075L126.821 48.7069L120.948 48.6289L120.953 46.1874L119.307 46.1836L119.306 46.4704L119.298 49.9559L119.297 50.4817V50.5534L120.945 50.5572L122.091 50.5597L122.083 53.9974L123.731 54.0012L123.738 50.5635H124.114L125.385 50.566Z" fill="#1E1E1E"/>
<path d="M124.833 57.1622L124.336 60.5635L125.753 60.771L126.52 55.5258L120.717 54.6126L121.069 52.1975L119.439 51.9597L119.398 52.2427L118.894 55.6918L118.819 56.2113L118.809 56.283L120.439 56.5207L121.572 56.6855L121.076 60.088L122.706 60.3258L123.203 56.9245L123.575 56.9786L124.833 57.1622Z" fill="#1E1E1E"/>
<path d="M123.347 63.6126L122.371 66.9082L123.745 67.3157L125.249 62.2327L119.636 60.5031L120.33 58.1623L118.75 57.6943L118.668 57.9698L117.679 61.3119L117.53 61.8151L117.509 61.8843L119.089 62.3522L120.187 62.6767L119.213 65.9736L120.791 66.4415L121.767 63.1446L122.128 63.2516L123.347 63.6126Z" fill="#1E1E1E"/>
<path d="M120.959 69.7849L119.523 72.9094L120.825 73.5069L123.038 68.6906L117.727 66.1786L118.746 63.961L117.249 63.2729L117.13 63.5333L115.674 66.7006L115.455 67.1786L115.425 67.244L116.923 67.9308L117.964 68.4088L116.53 71.5333L118.026 72.2214L119.462 69.0969L119.803 69.2541L120.959 69.7849Z" fill="#1E1E1E"/>
<path d="M117.716 75.5546L115.85 78.4427L117.054 79.2201L119.928 74.7672L115.03 71.5257L116.355 69.4754L114.971 68.5811L114.815 68.8226L112.925 71.7509L112.639 72.1911L112.601 72.2515L113.985 73.1458L114.947 73.7672L113.082 76.6553L114.467 77.5496L116.331 74.6603L116.648 74.8653L117.716 75.5546Z" fill="#1E1E1E"/>
<path d="M113.686 80.8051L111.428 83.3975L112.508 84.3384L115.989 80.3396L111.601 76.434L113.204 74.5937L111.961 73.512L111.772 73.7283L109.484 76.3572L109.14 76.7535L109.093 76.8076L110.335 77.8893L111.2 78.6415L108.942 81.2352L110.185 82.3157L112.443 79.7233L112.726 79.9698L113.686 80.8051Z" fill="#1E1E1E"/>
<path d="M108.948 85.4278L106.345 87.6731L107.281 88.7573L111.294 85.2957L107.507 80.8051L109.355 79.2102L108.279 77.9636L108.062 78.151L105.423 80.4278L105.025 80.7699L104.971 80.8177L106.047 82.0642L106.796 82.9322L104.193 85.1787L105.269 86.4253L107.872 84.18L108.117 84.4643L108.948 85.4278Z" fill="#1E1E1E"/>
<path d="M103.601 89.3282L100.704 91.1811L101.477 92.3874L105.942 89.532L102.833 84.5484L104.889 83.2326L104.001 81.8452L103.76 81.9999L100.824 83.8779L100.381 84.1609L100.321 84.1999L101.209 85.5874L101.826 86.5534L98.9296 88.405L99.8176 89.7936L102.713 87.9408L102.916 88.2578L103.601 89.3282Z" fill="#1E1E1E"/>
<path d="M97.7534 92.4303L94.6239 93.8517L95.2163 95.1561L100.041 92.9649L97.6742 87.5888L99.8968 86.58L99.2151 85.0793L98.9547 85.1988L95.7798 86.6391L95.3018 86.8567L95.2364 86.8869L95.9182 88.3863L96.3912 89.4303L93.2616 90.8517L93.9421 92.351L97.0729 90.9297L97.2289 91.2718L97.7534 92.4303Z" fill="#1E1E1E"/>
<path d="M91.5245 94.6668L88.2239 95.6278L88.6239 97.0039L93.7132 95.5221L92.1346 89.8642L94.478 89.1812L94.0176 87.6001L93.7421 87.6793L90.395 88.6542L89.8906 88.8014L89.8226 88.8215L90.283 90.4039L90.6038 91.5032L87.3019 92.4655L87.7635 94.0466L91.0641 93.0856L91.1685 93.4466L91.5245 94.6668Z" fill="#1E1E1E"/>
<path d="M85.0402 95.995L81.6364 96.4768L81.8377 97.8944L87.0855 97.1523L86.327 91.3271L88.7446 90.985L88.5132 89.3535L88.2289 89.3938L84.7786 89.8831L84.2578 89.956L84.1874 89.9661L84.4176 91.5975L84.5786 92.7321L81.1748 93.2139L81.405 94.8453L84.81 94.3636L84.8629 94.7359L85.0402 95.995Z" fill="#1E1E1E"/>
<path d="M79 100C72.2503 100 65.7019 98.678 59.5371 96.0704C53.5836 93.5522 48.2365 89.9472 43.644 85.3547C39.0528 80.7635 35.4465 75.4164 32.9283 69.4616C30.322 63.2981 29 56.7497 29 50C29 43.2503 30.322 36.7019 32.9296 30.5371C35.4478 24.5836 39.0528 19.2365 43.6453 14.644C48.2365 10.0528 53.5836 6.44654 59.5384 3.9283C65.7019 1.32201 72.2503 0 79 0C85.7497 0 92.2981 1.32201 98.4629 3.92956C104.416 6.4478 109.764 10.0528 114.356 14.6453C118.947 19.2365 122.553 24.5836 125.072 30.5384C127.679 36.7031 129.001 43.2503 129.001 50.0013C129.001 56.7522 127.679 63.2994 125.072 69.4642C122.553 75.4176 118.948 80.7648 114.356 85.3572C109.765 89.9484 104.418 93.5547 98.4629 96.073C92.2981 98.6805 85.7497 100.003 79 100.003V100ZM79 0.377358C51.6377 0.377358 29.3774 22.6377 29.3774 50C29.3774 77.3623 51.6377 99.6227 79 99.6227C106.362 99.6227 128.623 77.3623 128.623 50C128.623 22.6377 106.362 0.377358 79 0.377358Z" fill="#1E1E1E"/>
<path d="M79.0968 88.4238C68.7962 88.4238 59.1119 84.4125 51.8289 77.1295C44.5459 69.8465 40.5345 60.1622 40.5345 49.8616C40.5345 39.561 44.5459 29.8767 51.8289 22.5937C59.1119 15.3106 68.7949 11.2993 79.0968 11.2993C89.3987 11.2993 99.0792 15.3106 106.362 22.5937C113.646 29.8767 117.658 39.561 117.658 49.8616C117.658 60.1622 113.646 69.8452 106.362 77.1295C99.0792 84.4125 89.3962 88.4238 79.0968 88.4238ZM79.0968 11.6792C58.0427 11.6792 40.9132 28.8088 40.9132 49.8628C40.9132 70.9169 58.0427 88.0465 79.0968 88.0465C100.151 88.0465 117.28 70.9169 117.28 49.8628C117.28 28.8088 100.151 11.6792 79.0968 11.6792Z" fill="#1E1E1E"/>
<path d="M70.7874 49.8628C71.039 49.3371 71.1837 48.7459 71.1837 48.1232C71.1837 47.5006 71.039 46.9056 70.7874 46.3798C70.1396 45.0477 68.7749 44.1257 67.19 44.1257H60.6768V55.8716H62.9308V52.1157H66.5799L68.4818 55.8716H70.7396L68.8378 52.1157L68.6893 51.8238C69.6076 51.454 70.3585 50.7509 70.7874 49.8628ZM68.19 49.8628H62.9308V46.3811H67.4969C68.4956 46.3811 69.3069 47.1911 69.3069 48.1911C69.3069 48.9459 68.8441 49.5899 68.19 49.8641V49.8628Z" fill="#1E1E1E"/>
<path d="M58.8491 55.8729H56.5912L52.9057 48.5861L49.2164 55.8729H46.9585L51.7774 46.3584L52.9057 44.127L54.0352 46.3546L58.8491 55.8729Z" fill="#1E1E1E"/>
<path d="M100.441 55.8729H98.1836L94.4981 48.5861L90.8088 55.8729H88.5509L93.3698 46.3546L94.4943 44.127L95.6226 46.3584L100.441 55.8729Z" fill="#1E1E1E"/>
<path d="M111.04 49.8628V52.1169H104.405V55.8729H102.147V44.127H111V46.381H104.405V49.8628H111.04Z" fill="#1E1E1E"/>
<path d="M86.3899 44.02V55.8729H84.1333V49.4666L81.6503 51.9496L80.0553 53.5483L78.4591 51.9534L75.9761 49.4703V55.8729H73.7195V44.02L80.0553 50.3546L84.1333 46.2766L86.3899 44.02Z" fill="#1E1E1E"/>
</g>
<defs>
<clipPath id="clip0_417_4848">
<rect width="100" height="100" fill="white" transform="translate(29)"/>
</clipPath>
</defs>
</svg>
