<svg width="158" height="100" viewBox="0 0 158 100" fill="none" xmlns="http://www.w3.org/2000/svg">
<rect width="158" height="100" fill="#FAF7EF"/>
<g clip-path="url(#clip0_431_72)">
<path d="M83.8589 0V82.103H88.4817V62.8516L91.003 60.1986L112.96 82.103H119.001L93.9981 57.0764L113.854 36.7856H107.919L88.483 56.6604V0H83.8603" fill="#1E1E1E"/>
<path d="M50.9762 88.7102C50.9762 88.7102 49.4532 87.4622 47.5088 87.4622C47.5088 87.4622 45.1981 87.4622 43.569 89.1276C43.569 89.1276 41.9413 90.7931 41.9413 93.0818C41.9413 93.0818 41.9413 95.3706 43.569 97.0361C43.569 97.0361 45.1967 98.6483 47.5088 98.6483C47.5088 98.6483 49.4518 98.6483 50.9762 97.4521L51.7115 98.1805C51.7115 98.1805 49.8732 99.689 47.5088 99.689C47.5088 99.689 44.7767 99.689 42.8336 97.7112C42.8336 97.7112 40.8906 95.7866 40.8906 93.0805C40.8906 93.0805 40.8906 90.3743 42.8336 88.4497C42.8336 88.4497 44.7767 86.4719 47.5088 86.4719C47.5088 86.4719 49.8732 86.4719 51.7115 87.9287L50.9762 88.7089" fill="#1E1E1E"/>
<path d="M56.2821 91.1558C54.4961 91.1558 53.2361 92.4039 53.2361 92.4039C51.9761 93.6519 51.9761 95.421 51.9761 95.421C51.9761 97.1901 53.2361 98.4382 53.2361 98.4382C54.4961 99.6862 56.2821 99.6862 56.2821 99.6862C58.3312 99.6862 59.6958 97.969 59.6958 97.969V99.4775H60.6419V91.4136H59.6958V92.8185C58.3821 91.1531 56.2821 91.1531 56.2821 91.1531V91.1558ZM56.2821 92.0915C57.6482 92.0915 58.6465 93.0286 58.6465 93.0286C59.6449 94.0175 59.6449 95.4224 59.6449 95.4224C59.6449 96.7755 58.6465 97.7644 58.6465 97.7644C57.6482 98.7533 56.2821 98.7533 56.2821 98.7533C54.8638 98.7533 53.9177 97.7644 53.9177 97.7644C52.9194 96.7755 52.9194 95.4224 52.9194 95.4224C52.9194 94.0175 53.9177 93.0286 53.9177 93.0286C54.8638 92.0915 56.2821 92.0915 56.2821 92.0915Z" fill="#1E1E1E"/>
<path d="M74.1934 87.7213C74.1934 87.7213 73.615 87.7213 73.615 87.1484C73.615 87.1484 73.615 86.5237 74.1934 86.5237C74.1934 86.5237 74.824 86.5237 74.824 87.1484C74.824 87.1484 74.824 87.7213 74.1934 87.7213Z" fill="#1E1E1E"/>
<path d="M63.4771 86.5251V99.4804H62.4788V86.5251H63.4771Z" fill="#1E1E1E"/>
<path d="M68.4675 97.7112L71.3566 91.415H72.4073L68.4675 100L64.4231 91.415H65.5261L68.4675 97.7112Z" fill="#1E1E1E"/>
<path d="M77.3977 92.1965C77.3977 92.1965 78.1854 91.1558 79.7084 91.1558C79.7084 91.1558 81.0744 91.1558 82.0191 92.0928C82.0191 92.0928 82.9651 93.0299 82.9651 94.3816V99.4802H82.0191V94.3816C82.0191 94.3816 82.0191 93.3927 81.3361 92.7162C81.3361 92.7162 80.7054 92.0396 79.7084 92.0396C79.7084 92.0396 78.7624 92.0396 78.0807 92.6643C78.0807 92.6643 77.3977 93.3409 77.3977 94.3816V99.4802H76.4517V91.4163H77.3977V92.1965Z" fill="#1E1E1E"/>
<path d="M74.6658 91.415V99.479H73.7197V91.415H74.6658Z" fill="#1E1E1E"/>
<path d="M95.5197 86.577L90.32 92.1434L95.4674 99.479H94.2597L89.6369 92.8718L88.6909 93.8607V99.4804H87.7449V86.5251H88.6909V92.404L94.1537 86.577H95.5197Z" fill="#1E1E1E"/>
<path d="M97.9351 86.5251V99.4804H96.9368V86.5251H97.9351Z" fill="#1E1E1E"/>
<path d="M103.767 91.1559C101.981 91.1559 100.721 92.404 100.721 92.404C99.5132 93.6002 99.5132 95.4211 99.5132 95.4211C99.5132 97.1902 100.721 98.3865 100.721 98.3865C101.981 99.6345 103.767 99.6345 103.767 99.6345C106.499 99.6345 107.654 97.2407 107.654 97.2407L106.814 96.8765C105.868 98.6974 103.768 98.6974 103.768 98.6974C102.402 98.6974 101.458 97.7604 101.458 97.7604C100.459 96.8233 100.459 95.4716 100.459 95.4716H108.076V95.4198C108.076 93.5988 106.816 92.4026 106.816 92.4026C105.556 91.1545 103.77 91.1545 103.77 91.1545L103.767 91.1559ZM103.767 92.0398C104.922 92.0398 105.816 92.7682 105.816 92.7682C106.708 93.4447 107.024 94.4854 107.024 94.4854H100.562C100.878 93.4447 101.718 92.7682 101.718 92.7682C102.664 92.0398 103.767 92.0398 103.767 92.0398Z" fill="#1E1E1E"/>
<path d="M109.544 87.1499C109.544 87.1499 109.544 86.5251 110.122 86.5251C110.122 86.5251 110.7 86.5251 110.7 87.1499C110.7 87.1499 110.7 87.7227 110.122 87.7227C110.122 87.7227 109.544 87.7227 109.544 87.1499Z" fill="#1E1E1E"/>
<path d="M113.431 91.4151V92.1953C113.431 92.1953 114.167 91.1545 115.742 91.1545C115.742 91.1545 117.108 91.1545 118.053 92.0916C118.053 92.0916 118.999 93.0287 118.999 94.3804V99.479H118V94.3804C118 94.3804 118 93.3915 117.37 92.715C117.37 92.715 116.687 92.0384 115.742 92.0384C115.742 92.0384 114.744 92.0384 114.114 92.6631C114.114 92.6631 113.431 93.3397 113.431 94.3804V99.479H112.433V91.4151H113.431Z" fill="#1E1E1E"/>
<path d="M110.594 91.415V99.479H109.648V91.415H110.594Z" fill="#1E1E1E"/>
<path d="M45.5658 42.9769C45.5658 42.9769 39 49.6359 39 59.2616C39 59.2616 39 69.0429 45.5135 75.7033C45.5135 75.7033 52.0269 82.4155 61.9018 82.4155C61.9018 82.4155 71.0413 82.4155 78.0808 76.328L75.1394 73.4145C75.1394 73.4145 69.1506 78.4094 61.6925 78.4094C61.6925 78.4094 53.9713 78.4094 48.5609 72.6343C48.5609 72.6343 43.3611 66.9628 43.3611 59.263C43.3611 59.263 43.3611 51.6151 48.6132 46.0473C48.6132 46.0473 54.0237 40.3239 61.7971 40.3239C61.7971 40.3239 69.046 40.3239 74.7194 44.9029L77.5038 42.0412V41.7807C77.5038 41.7807 71.0427 36.3179 62.0078 36.3179C62.0078 36.3179 52.1853 36.3179 45.5672 42.9783" fill="#1E1E1E"/>
</g>
<defs>
<clipPath id="clip0_431_72">
<rect width="80" height="100" fill="white" transform="translate(39)"/>
</clipPath>
</defs>
</svg>
