<svg width="158" height="100" viewBox="0 0 158 100" fill="none" xmlns="http://www.w3.org/2000/svg">
<rect width="158" height="100" fill="#FAF7EF"/>
<g clip-path="url(#clip0_417_4849)">
<path d="M72.1912 60.7362C71.9787 59.8346 70.8427 58.4824 68.8324 58.4824C65.7133 58.4824 63.0164 60.7362 57.2277 60.7362C44.9339 60.7362 35.5494 49.5219 35.5494 35.8681C35.5494 22.2143 44.9339 11 57.2277 11C61.6952 11 64.6046 12.803 67.9607 12.803C69.5216 12.803 71.0797 11.9015 71.0797 11.2377H71.5292V25.3422H71.3167C71.3167 17.734 64.8388 11.4508 57.4647 11.4508C54.1059 11.4508 51.4363 12.1146 48.9792 14.128C45.4106 17.2559 43.6127 24.2031 43.6127 35.8681C43.6127 47.5331 45.6231 54.4529 48.9792 57.6082C51.4391 59.6243 54.1087 60.2854 57.4647 60.2854C66.19 60.2854 72.2157 52.8875 72.2157 44.3778H72.6652V60.7362H72.1884H72.1912Z" fill="#1E1E1E"/>
<path d="M88.5031 34.7288H108.383V58.272H102.805V59.1735H122.445V58.272H115.758V12.3249H122.445V11.4507H102.805V12.3249H108.383V33.8519H88.5031V12.3249H93.8695V11.4507H74.8608V12.3249H81.1262V58.272H74.8608V59.1735H93.8695V58.272H88.5031V34.7288Z" fill="#1E1E1E"/>
<path d="M30.9021 88.8525H26.8841V88.6749H27.9029L25.582 83.7111H23.7514V88.6749H24.7729V88.858H21.109V88.6749H21.9916V79.1244H20.9701V78.9031H26.2548C27.3799 78.9031 28.1562 79.1244 28.6139 79.5669C29.0715 80.0095 29.3167 80.6296 29.3167 81.4382C29.3167 82.4681 28.9299 83.1293 28.1208 83.4953C27.7149 83.6483 27.2845 83.7221 26.8541 83.7139H25.9388C26.1431 84.0881 26.4319 84.405 26.7833 84.6318C27.1919 84.8667 27.6496 84.9924 28.1154 84.9978L29.8479 88.6749H30.913L30.9048 88.8525H30.9021ZM23.7514 83.4926H25.266C25.8299 83.4926 26.6389 83.3451 27.0285 83.05C27.418 82.755 27.6632 82.1349 27.6632 81.288C27.6632 80.4411 27.4861 79.821 27.1701 79.515C26.8541 79.209 26.1132 79.0479 25.5547 79.0479H23.7514V83.4926Z" fill="#1E1E1E"/>
<path d="M20.3545 88.8523H16.5053V88.6748H17.5269L16.2384 85.5113H12.2912L10.8828 88.6748H12.0079V88.8578H9.6842V88.6748H10.703L15.1406 78.6816L19.4719 88.6338H20.3871V88.8523H20.3517H20.3545ZM12.3947 85.29H16.1648L14.3015 81.031L12.3947 85.29Z" fill="#1E1E1E"/>
<path d="M78.0779 88.8523H74.2423V88.6748H75.2611L73.959 85.5113H70.02L68.6062 88.6748H69.7312V88.8578H67.4076V88.6748H68.421L72.8313 78.6816L77.1653 88.6338H78.0779V88.8523ZM70.0908 85.29H73.8528L71.9895 81.031L70.0908 85.29Z" fill="#1E1E1E"/>
<path d="M66.3154 88.8525L58.3284 79.138V88.6749H59.3499V88.858H57.0944V88.6749H58.1159V79.1244H57.0944V78.9031H60.4341L66.1383 85.8065V79.0888H65.1168V78.9031H67.3723V79.0888H66.3508V88.8525H66.3154Z" fill="#1E1E1E"/>
<path d="M55.5551 88.8525H51.7877V88.6749H52.8065V79.1244H51.7877V78.9031H55.5551V79.0888H54.5336V88.6339H55.5551V88.8525Z" fill="#1E1E1E"/>
<path d="M36.097 89.0001C34.1248 89.0001 32.9017 88.1204 32.2234 87.3855C31.3517 86.4649 30.8586 85.2274 30.8504 83.9352C30.8368 83.2604 30.9539 82.5911 31.1964 81.9655C31.4388 81.3399 31.8011 80.7744 32.2588 80.2991C33.2858 79.2883 34.6505 78.7338 36.0643 78.7556H36.1324C37.5244 78.7174 38.8756 79.2446 39.9026 80.2281C40.3766 80.6952 40.7525 81.258 41.0058 81.8836C41.2592 82.5092 41.3872 83.1812 41.3818 83.8614C41.3872 84.5581 41.251 85.2465 40.984 85.8857C40.7171 86.525 40.3248 87.096 39.8317 87.5658C38.7884 88.4865 37.4672 88.9946 36.0997 89.0001H36.097ZM36.097 78.9414C33.8088 78.9769 32.6374 80.6652 32.6374 83.9379C32.6374 84.4515 32.6374 85.7 33.0951 86.7627C33.6263 88.0466 34.6451 88.746 36.0889 88.7843C37.5326 88.7487 38.5542 88.0849 39.0854 86.7627C39.4177 85.8612 39.573 84.9023 39.543 83.9379C39.5539 80.6652 38.3907 78.9769 36.0997 78.9414H36.097Z" fill="#1E1E1E"/>
<path d="M50.4149 88.8525H42.3843V88.6749H43.3949V79.1244H42.3843V78.9031H46.2225V79.0888H45.1574V88.6339H47.9469C49.5432 88.6339 50.1289 85.8802 50.2351 84.4487H50.4122V88.8525H50.4149Z" fill="#1E1E1E"/>
<path d="M93.2565 88.8525H89.4564V88.6749H90.4752V83.7521H85.5064V88.6339H86.5252V88.817H82.7224V88.6339H83.7439V79.0888H82.7224V78.9031H86.5252V79.0888H85.5037V83.5664H90.4697V79.0888H89.4564V78.9031H93.2592V79.0888H92.2404V88.6339H93.2592V88.8525H93.2565Z" fill="#1E1E1E"/>
<path d="M102.892 88.8525H94.7194V88.6749H95.7409V79.1244H94.7194V78.9031H102.892V82.4681H102.712C102.676 80.8891 101.726 79.0888 100.388 79.0888H97.4598V83.4571H98.8327C100.099 83.4571 100.312 82.6867 100.347 81.1814H100.524V86.0278H100.347C100.347 85.1454 100.241 84.5963 100.031 84.2657C99.8216 83.9352 99.432 83.7111 98.8327 83.7111H97.4598V88.7077H100.388C101.72 88.7077 102.57 86.5413 102.676 84.5225H102.853V88.8552H102.892V88.8525Z" fill="#1E1E1E"/>
<path d="M114.829 88.8525H110.813V88.6749H111.821L109.498 83.7166H107.67V88.6749H108.689V88.858H105.035V88.6749H105.915V79.1244H104.899V78.9031H110.181C111.306 78.9031 112.083 79.1244 112.54 79.5669C112.998 80.0095 113.246 80.6296 113.246 81.4382C113.246 82.4681 112.856 83.1293 112.047 83.4953C111.641 83.6483 111.211 83.7221 110.781 83.7139H109.865C110.07 84.0881 110.358 84.405 110.71 84.6318C111.118 84.8667 111.576 84.9924 112.042 84.9978L113.772 88.6749H114.793V88.858L114.829 88.8525ZM107.681 83.4926H109.192C109.756 83.4926 110.565 83.3451 110.955 83.05C111.344 82.755 111.59 82.1349 111.59 81.288C111.59 80.4411 111.413 79.821 111.097 79.515C110.781 79.209 110.031 79.0369 109.476 79.0369H107.681V83.4926Z" fill="#1E1E1E"/>
<path d="M125.404 88.8525H121.41V88.6749H122.432L120.108 83.6784H118.277V88.6339H119.28V88.817H115.621V88.6339H116.501V79.0888H115.48V78.9031H120.762C121.887 78.9031 122.663 79.1244 123.121 79.5669C123.578 80.0095 123.826 80.6296 123.826 81.4382C123.826 82.4681 123.437 83.1293 122.628 83.4953C122.222 83.6483 121.791 83.7221 121.361 83.7139H120.446C120.65 84.0881 120.942 84.4023 121.293 84.6318C121.702 84.8667 122.159 84.9924 122.625 84.9978L124.355 88.6749H125.376V88.858L125.404 88.8525ZM118.264 83.4926H119.778C120.34 83.4926 121.151 83.3451 121.538 83.05C121.925 82.755 122.173 82.1349 122.173 81.288C122.173 80.4411 121.998 79.821 121.677 79.515C121.358 79.209 120.612 79.0369 120.059 79.0369H118.261V83.4926H118.264Z" fill="#1E1E1E"/>
<path d="M147.109 88.8525H143.094V88.6749H144.113L141.789 83.7166H139.958V88.6749H140.98V88.858H137.316V88.6749H138.196V79.1244H137.174V78.9031H142.456C143.584 78.9031 144.36 79.1244 144.818 79.5669C145.276 80.0095 145.521 80.6296 145.521 81.4382C145.521 82.4681 145.134 83.1293 144.325 83.4953C143.919 83.6483 143.489 83.7221 143.056 83.7139H142.14C142.345 84.0881 142.636 84.4023 142.988 84.6318C143.396 84.8667 143.854 84.9924 144.32 84.9978L146.052 88.6749H147.071V88.858L147.109 88.8525ZM139.958 83.4926H141.473C142.037 83.4926 142.846 83.3451 143.233 83.05C143.62 82.755 143.87 82.1349 143.87 81.288C143.87 80.4411 143.69 79.821 143.374 79.515C142.895 79.1845 142.331 79.0178 141.756 79.0369H139.958V83.4926Z" fill="#1E1E1E"/>
<path d="M157.956 88.8523H154.118V88.6748H155.14L153.835 85.5113H149.896L148.485 88.6748H149.61V88.8578H147.531V88.6748H148.297L152.743 78.6816L157.082 88.6338H157.997V88.8523H157.954H157.956ZM149.969 85.29H153.74L151.876 81.031L149.969 85.29Z" fill="#1E1E1E"/>
<path d="M135.434 88.8525H127.229V88.6749H128.25V79.1244H127.229V78.9031H135.401V82.4681H135.224C135.188 80.8891 134.235 79.0888 132.9 79.0888H130.013V83.4571H131.386C132.652 83.4571 132.865 82.6867 132.9 81.1814H133.077V86.0278H132.9C132.9 85.1454 132.794 84.5963 132.584 84.2657C132.374 83.9352 131.985 83.7111 131.386 83.7111H130.013V88.7077H132.941C134.273 88.7077 135.123 86.5413 135.232 84.5225H135.409V88.8552H135.439L135.434 88.8525Z" fill="#1E1E1E"/>
<path d="M5.10494 89C4.12699 89.0218 3.16267 88.7541 2.32365 88.2296C1.62356 87.7734 1.04333 87.1423 0.637437 86.391C0.231548 85.6398 0.0136204 84.7956 0 83.9351V83.8231C0.0163445 82.9544 0.23972 82.102 0.651057 81.3453C1.06239 80.5886 1.6508 79.9521 2.35906 79.4904C3.18718 78.9659 4.13789 78.6981 5.10767 78.72H5.21391C5.97665 78.7282 6.7285 78.8921 7.43131 79.1981C7.66014 79.3565 7.93255 79.433 8.20496 79.4193C8.39019 79.4439 8.57816 79.403 8.73888 79.3019C8.8996 79.2008 9.02218 79.0451 9.08756 78.8648H9.26463V82.3561H9.08756C9.05215 80.6268 7.3959 79.015 5.67155 78.9768H5.49449C4.47295 78.9768 3.66118 79.2691 3.0646 79.8564C2.29096 80.5913 1.86328 81.9135 1.83059 83.7521V83.8969C1.866 85.8064 2.32365 87.2024 3.16267 88.0465C3.5059 88.347 3.90362 88.5711 4.33675 88.6967C4.76716 88.8224 5.21935 88.8524 5.66338 88.7814C6.5705 88.6885 7.42314 88.2869 8.09054 87.6422C8.39292 87.3581 8.63809 87.0139 8.80698 86.6287C8.97587 86.2435 9.06849 85.8255 9.07939 85.4021H9.25645V88.8524H9.07939C9.00584 88.6776 8.88053 88.5301 8.72253 88.4317C8.56454 88.3334 8.38202 88.2869 8.19951 88.2979C7.90803 88.2979 7.622 88.3607 7.35504 88.4809C6.67129 88.8115 5.92489 88.9863 5.17304 88.9945L5.11039 89H5.10494Z" fill="#1E1E1E"/>
</g>
<defs>
<clipPath id="clip0_417_4849">
<rect width="158" height="78" fill="white" transform="translate(0 11)"/>
</clipPath>
</defs>
</svg>
