<svg width="158" height="100" viewBox="0 0 158 100" fill="none" xmlns="http://www.w3.org/2000/svg">
<rect width="158" height="100" fill="#FAF7EF"/>
<g clip-path="url(#clip0_417_4850)">
<path fill-rule="evenodd" clip-rule="evenodd" d="M56.5678 66.6775V64.5825H59.6889C60.4695 64.5825 61.2486 64.5825 61.2486 65.63C61.2486 66.5476 60.468 66.6775 59.6889 66.6775H56.5678ZM55.137 70.8703H56.5678V67.8577H59.2993C60.5998 67.8577 62.6795 67.8577 62.6795 65.6315C62.6795 63.2739 60.5984 63.2739 59.2993 63.2739H55.1384V70.8717L55.137 70.8703Z" fill="#1E1E1E"/>
<path fill-rule="evenodd" clip-rule="evenodd" d="M67.4907 67.8562L69.0505 64.4512L70.6103 67.8562H67.4892H67.4907ZM64.5 70.8702H66.0612L66.8418 69.1677H71.133L71.9137 70.8702H73.4734L69.8325 63.2725H68.1424L64.5014 70.8702H64.5Z" fill="#1E1E1E"/>
<path fill-rule="evenodd" clip-rule="evenodd" d="M78.6742 66.6775V64.4512H81.5345C82.7047 64.4512 83.355 64.7124 83.355 65.4987C83.355 66.4163 82.7047 66.6775 81.5345 66.6775H78.6742ZM77.2448 70.8703H78.6756V67.8577H81.016L83.2275 70.8703H85.048L82.7076 67.7264C83.8778 67.7264 84.7887 66.9401 84.7887 65.5002C84.7887 63.6664 83.4882 63.2739 81.7981 63.2739H77.2462V70.8717L77.2448 70.8703Z" fill="#1E1E1E"/>
<path fill-rule="evenodd" clip-rule="evenodd" d="M89.468 63.2725H90.8989V70.8702H89.468V63.2725Z" fill="#1E1E1E"/>
<path fill-rule="evenodd" clip-rule="evenodd" d="M101.432 65.6299C101.171 64.8436 100.521 64.3199 98.7022 64.3199C97.6623 64.3199 96.7514 64.5825 96.7514 65.2361C96.7514 65.6285 96.8817 65.8911 98.4415 66.1537L100.262 66.4163C101.952 66.6774 102.863 67.3339 102.863 68.5127C102.863 70.3464 101.173 71.0015 99.2221 71.0015C95.9708 71.0015 95.1916 69.4303 94.9309 68.9051L96.3618 68.3814C96.6225 68.9051 97.2727 69.6914 99.2235 69.6914C100.394 69.6914 101.434 69.2975 101.434 68.6439C101.434 68.2515 100.914 67.8576 99.7435 67.7263L97.923 67.4652C96.2329 67.3339 95.193 66.5476 95.193 65.3688C95.193 63.1411 98.1837 63.1411 98.7036 63.1411C101.955 63.1411 102.605 64.5825 102.734 65.1062L101.434 65.6299H101.432Z" fill="#1E1E1E"/>
<path fill-rule="evenodd" clip-rule="evenodd" d="M136.283 54.4959C136.673 58.4261 138.624 57.7711 138.754 58.1635H131.211C131.081 58.0322 133.293 58.0322 132.902 54.7585L130.951 39.8256C130.82 39.4331 130.82 39.0392 130.56 39.0392C130.429 39.1705 123.928 55.151 123.928 55.151C123.798 55.4135 123.669 55.5434 123.408 55.151C123.278 54.8884 117.297 41.6594 117.297 41.6594C117.036 41.0043 116.516 39.9568 116.386 39.6943C116.255 39.4317 115.996 39.4317 115.996 40.4806L114.436 55.5448C114.047 58.165 116.517 58.0337 116.517 58.165H111.056C111.056 58.0337 112.876 58.2963 113.266 55.5448L115.086 38.9094C114.956 35.6342 112.746 35.7655 112.746 35.5029H118.468V35.7655L124.449 48.996C124.58 49.1273 124.71 49.2571 124.71 49.2571C124.841 49.651 124.84 49.9122 125.1 49.5197L130.952 35.5029H136.414C136.414 35.7655 134.202 35.6342 134.202 38.3842L136.283 54.4959Z" fill="#1E1E1E"/>
<path fill-rule="evenodd" clip-rule="evenodd" d="M11.7034 57.377H8.71277C7.67291 57.377 6.37236 57.5083 6.37236 56.3296V38.7765C6.37236 36.0251 9.36304 36.0251 9.49338 35.7639H0.259249C0.128908 36.0251 3.12101 36.0251 3.12101 38.9078V55.8058C3.12101 58.0321 0 58.0321 0 58.1634H16.2553L17.1648 53.317C16.7753 53.317 17.0345 57.2472 11.7034 57.377Z" fill="#1E1E1E"/>
<path fill-rule="evenodd" clip-rule="evenodd" d="M146.686 47.0292V55.5432C146.686 57.2457 146.556 57.377 147.726 57.377H153.707C158.519 57.1144 157.609 53.7094 157.999 53.5781L157.868 58.1633H141.093C140.963 58.032 143.564 58.4259 143.564 54.7583V39.0376C143.564 35.37 141.223 35.8937 141.223 35.6326H157.868L157.999 40.0865C157.738 40.0865 158.649 36.5502 153.577 36.2876H148.116C147.205 36.5487 146.685 35.8937 146.685 38.1214V44.0167C146.685 44.803 146.815 44.9328 147.855 44.9328H153.316C155.917 44.9328 155.657 42.444 155.787 42.444V48.3378C155.657 48.3378 155.917 45.5879 153.447 45.7177H147.985C146.815 45.7177 146.685 46.1116 146.685 46.8965V47.0278L146.686 47.0292Z" fill="#1E1E1E"/>
<path fill-rule="evenodd" clip-rule="evenodd" d="M46.4242 55.806C46.6849 58.5559 48.7646 57.9023 48.7646 58.1635H42.9122C42.9122 57.9023 45.2526 58.1635 45.2526 55.6747V38.6453C45.2526 35.7641 42.7818 35.7641 42.6515 35.5015H48.6343L60.8576 50.8269L60.7273 38.3827C60.7273 35.3702 58.3869 35.6313 58.3869 35.5015H64.4986C64.4986 35.6328 62.1582 35.6328 62.0278 38.3827V57.6383C62.0278 57.6383 62.1582 59.0797 61.2472 57.9009C60.8576 57.3772 46.5531 39.1691 46.5531 39.1691C46.4228 38.9079 46.4228 39.1691 46.4228 39.5615V55.8045L46.4242 55.806Z" fill="#1E1E1E"/>
<path fill-rule="evenodd" clip-rule="evenodd" d="M38.492 55.2821L30.2992 35.6327C29.6489 34.9776 29.3882 35.764 29.3882 35.764C28.6076 37.5978 21.0665 55.8059 21.0665 55.8059C20.0266 58.2947 18.7261 58.0321 18.7261 58.1634H24.0586C24.0586 57.9023 21.1968 58.2947 22.2381 55.8059L24.9695 48.8631C25.3591 48.3394 25.3591 48.2081 26.0094 48.2081H31.3419C31.7754 48.2081 32.122 48.4264 32.3818 48.8631L34.9828 55.5433C35.7635 58.1634 33.4216 58.0321 33.4216 58.1634H40.9642C41.0945 57.9023 39.794 58.6871 38.4934 55.2821H38.492ZM26.5279 47.1606C26.008 47.1606 26.008 46.7682 26.2686 46.243C26.2686 46.243 28.2195 41.1341 28.4787 40.6103C28.8683 39.824 29.129 39.9553 29.3882 40.6103L31.339 46.3743C31.5983 46.898 31.859 47.1606 31.2087 47.1606H26.5279Z" fill="#1E1E1E"/>
<path fill-rule="evenodd" clip-rule="evenodd" d="M108.064 34.4539L98.9615 30L89.988 34.4539L98.9615 31.7025L108.064 34.4539Z" fill="#1E1E1E"/>
<path fill-rule="evenodd" clip-rule="evenodd" d="M99.0917 35.1089C91.9402 35.1089 87.3883 40.7416 87.3883 46.7667C87.3883 52.7918 91.9402 58.1634 98.9614 58.1634C105.983 58.1634 110.665 52.7933 110.665 46.7667C110.665 40.7401 106.113 35.1089 99.0917 35.1089ZM98.9614 57.377C94.5398 57.377 91.6795 53.1857 91.6795 46.898C91.6795 39.5628 94.6702 36.0251 98.9614 36.0251C103.253 36.0251 106.243 39.5614 106.243 46.898C106.243 53.1857 103.253 57.2472 98.9614 57.377Z" fill="#1E1E1E"/>
<path fill-rule="evenodd" clip-rule="evenodd" d="M77.504 57.2457C82.7061 57.2457 84.9162 53.5781 85.4361 53.4468C85.5665 53.4468 82.835 58.1619 77.504 58.1619C65.4109 58.1619 65.5399 47.0278 65.5399 47.0278C65.9294 39.2987 72.1715 34.5837 78.1542 35.2387C79.8444 35.5013 80.4946 35.7624 81.6648 36.025C82.1848 36.2876 83.746 37.0725 84.2659 36.8113C84.6555 36.68 85.0465 35.7639 85.1754 35.7639V41.789C84.7859 41.789 83.355 36.025 77.6329 36.025C72.9521 36.025 69.3097 41.3966 69.44 46.7667C69.5704 55.6745 75.6821 57.2457 77.5025 57.2457H77.504Z" fill="#1E1E1E"/>
</g>
<defs>
<clipPath id="clip0_417_4850">
<rect width="158" height="41" fill="white" transform="translate(0 30)"/>
</clipPath>
</defs>
</svg>
