<svg width="158" height="100" viewBox="0 0 158 100" fill="none" xmlns="http://www.w3.org/2000/svg">
<rect width="158" height="100" fill="#FAF7EF"/>
<g clip-path="url(#clip0_417_4847)">
<path fill-rule="evenodd" clip-rule="evenodd" d="M0 59.4451H3.64889L19.3693 76.7638V59.4451H21.9017V80.4796H19.3693L2.45703 61.6771V80.4796H0V59.4451ZM73.2271 71.8568C73.2271 79.4389 67.2678 81 62.3517 81C57.4355 81 51.4741 79.4389 51.4741 71.8568V59.4451H54.0086V71.8568C54.0086 76.6907 57.1381 78.9206 62.3517 78.9206C67.5653 78.9206 70.6193 76.6907 70.6193 71.8568V59.4451H73.2271V71.8568ZM86.4863 61.6771H76.7294V59.4451H98.8573V61.6771H89.0962V80.4796H86.4863V61.6771ZM102.73 59.4451H105.263V80.4796H102.73V59.4451ZM132.826 74.9039C130.514 79.2884 126.641 81 121.503 81C113.306 81 109.433 76.1682 109.433 70.001C109.433 62.7889 114.347 58.9269 121.427 58.9269C125.973 58.9269 130.589 60.6343 132.451 64.9457L130.292 65.9843C128.8 62.4922 125.52 61.0794 121.503 61.0794C115.468 61.0794 112.043 64.35 112.043 70.3709C112.043 75.2006 115.319 78.768 121.725 78.768C125.897 78.768 128.8 77.0585 130.514 73.7879L132.824 74.9039H132.826ZM66.4991 52.6029C71.3524 47.9342 77.4772 40.9018 84.3518 30.5862C88.3401 24.5925 90.4766 19 90.4766 19C90.4766 19 87.8185 27.7607 84.2366 35.3699C78.2292 48.0512 74.8777 51.3365 74.8777 51.3365L66.5012 52.6029H66.4991Z" fill="#1E1E1E"/>
<path fill-rule="evenodd" clip-rule="evenodd" d="M87.1252 29.8945C87.01 37.8486 85.3908 42.4024 84.4084 44.534C81.9242 49.953 79.9594 50.9896 79.9594 50.9896L73.4324 52.603C73.4324 52.603 78.7487 49.3742 82.1567 43.7273C86.6036 36.4065 87.1252 29.8945 87.1252 29.8945ZM133.197 80.4797H136.027L138.784 75.0565H152.416L155.097 80.4797H158L147.125 59.4452H143.995L133.195 80.4797H133.197ZM139.9 72.7535L145.562 61.4515L151.226 72.7535H139.902H139.9ZM32.0315 72.7535L37.6955 61.4515L43.3573 72.7535H32.0336H32.0315ZM25.3265 80.4797H28.1585L30.9109 75.0565H44.5471L47.2283 80.4797H50.1336L39.256 59.4452H36.1266L25.3265 80.4797Z" fill="#1E1E1E"/>
</g>
<defs>
<clipPath id="clip0_417_4847">
<rect width="158" height="62" fill="white" transform="translate(0 19)"/>
</clipPath>
</defs>
</svg>
